{"title":"Love.And.Mercy.2014.WEBRip.480p.x264.AAC-VYTO [P2PDL]","uid":12293026,"size":455229882,"categoryP":"video","categoryS":"movies","magnet":"?xt=urn:btih:dec9de84fd00c5c14510f186f12c0a70e400b8a9&amp;dn=Love.And.Mercy.2014.WEBRip.480p.x264.AAC-VYTO+%5BP2PDL%5D&amp;tr=udp%3A%2F%2Ftracker.openbittorrent.com%3A80&amp;tr=udp%3A%2F%2Fopen.demonii.com%3A1337&amp;tr=udp%3A%2F%2Ftracker.coppersurfer.tk%3A6969&amp;tr=udp%3A%2F%2Fexodus.desync.com%3A6969","seeders":4,"leechers":4,"uploader":"ValidusVyto","files":7,"time":1440587087,"description":"____    ____ ____    ____ .___________.  ______   \n     /   /      /   / |           | /  __    \n    /   /      /   /  `---|  |----`|  |  |  | \n        /     _    _/       |  |     |  |  |  | \n       /        |  |         |  |     |  `--'  | \n    __/         |__|         |__|      ______/  \n                                                  \nPresenting Small Encodes with quality for years!\n                                                                                                   \n                                                                                                   \n\nLove.And.Mercy.2014.WEBRip.480p.x264.AAC-VYTO\n\n\nGenre: Biography, Drama, Music  &lt;a href=&quot;\nhttp://www.imdb.com/title/tt0903657/&quot; rel=&quot;nofollow&quot; target=&quot;_NEW&quot;&gt;\nhttp://www.imdb.com/title/tt0903657/&lt;/a&gt;\n\n\nGeneral\nFormat                         : MPEG-4\nFile size                      : 427 MiB\nOverall bit rate mode          : Variable\nOverall bit rate               : 491 Kbps\n\nVideo\nFormat                         : AVC\nBit rate                       : 456 Kbps\nWidth                          : 720 pixels\nHeight                         : 400 pixels\nDisplay aspect ratio           : 16:9\nFrame rate mode                : Constant\nFrame rate                     : 23.976 fps\nBit depth                      : 8 bits\nStream size                    : 396 MiB (93%)\nWriting library                : x264 core 148 r2597\n\nAudio\nFormat                         : AAC\nBit rate mode                  : Variable\nBit rate                       : 32.0 Kbps\nChannel(s)                     : 2 channels\nChannel positions              : Front: L R \nSampling rate                  : 48.0 KHz\nStream size                    : 27.8 MiB (7%)\nLanguage                       : English\n\nSubtitle                       : Yes (English)\nSource                     \t   : 720p.WEB-DL.DD5.1.H264\n\nScreenshots:\n &lt;a href=&quot;\nhttp://ititli.com/hS&quot; rel=&quot;nofollow&quot; target=&quot;_NEW&quot;&gt;\nhttp://ititli.com/hS&lt;/a&gt; &lt;a href=&quot;\nhttp://ititli.com/hZ&quot; rel=&quot;nofollow&quot; target=&quot;_NEW&quot;&gt;\nhttp://ititli.com/hZ&lt;/a&gt; &lt;a href=&quot;\nhttp://ititli.com/hc&quot; rel=&quot;nofollow&quot; target=&quot;_NEW&quot;&gt;\nhttp://ititli.com/hc&lt;/a&gt; &lt;a href=&quot;\nhttp://ititli.com/hi&quot; rel=&quot;nofollow&quot; target=&quot;_NEW&quot;&gt;\nhttp://ititli.com/hi&lt;/a&gt; &lt;a href=&quot;\nhttp://ititli.com/hp&quot; rel=&quot;nofollow&quot; target=&quot;_NEW&quot;&gt;\nhttp://ititli.com/hp&lt;/a&gt; &lt;a href=&quot;\nhttp://ititli.com/hD&quot; rel=&quot;nofollow&quot; target=&quot;_NEW&quot;&gt;\nhttp://ititli.com/hD&lt;/a&gt; &lt;a href=&quot;\nhttp://ititli.com/ha&quot; rel=&quot;nofollow&quot; target=&quot;_NEW&quot;&gt;\nhttp://ititli.com/ha&lt;/a&gt; &lt;a href=&quot;\nhttp://ititli.com/hb&quot; rel=&quot;nofollow&quot; target=&quot;_NEW&quot;&gt;\nhttp://ititli.com/hb&lt;/a&gt; &lt;a href=&quot;\nhttp://ititli.com/hz&quot; rel=&quot;nofollow&quot; target=&quot;_NEW&quot;&gt;\nhttp://ititli.com/hz&lt;/a&gt; &lt;a href=&quot;\nhttp://ititli.com/hI&quot; rel=&quot;nofollow&quot; target=&quot;_NEW&quot;&gt;\nhttp://ititli.com/hI&lt;/a&gt; &lt;a href=&quot;\nhttp://ititli.com/hO&quot; rel=&quot;nofollow&quot; target=&quot;_NEW&quot;&gt;\nhttp://ititli.com/hO&lt;/a&gt; &lt;a href=&quot;\nhttp://ititli.com/s9&quot; rel=&quot;nofollow&quot; target=&quot;_NEW&quot;&gt;\nhttp://ititli.com/s9&lt;/a&gt;\n\n----------------------------------------------------------------------------------------------------\n\n\nEncoder Notes: Looking For Early Access To Anything You Can Provide DVDScr, R5, DVDR, BluRay, Direct\nAudio, Music Releases and Seedboxes. If You Got anything to offer please contact us.\n\nSupport us by donating BC - 1FgwdzPsd1y25Gea8wP1qni35uGCtmkRCD","torrent":{"xt":"urn:btih:dec9de84fd00c5c14510f186f12c0a70e400b8a9","amp;dn":"Love.And.Mercy.2014.WEBRip.480p.x264.AAC-VYTO+%5BP2PDL%5D","amp;tr":["udp%3A%2F%2Ftracker.openbittorrent.com%3A80","udp%3A%2F%2Fopen.demonii.com%3A1337","udp%3A%2F%2Ftracker.coppersurfer.tk%3A6969","udp%3A%2F%2Fexodus.desync.com%3A6969"],"infoHash":"dec9de84fd00c5c14510f186f12c0a70e400b8a9","infoHashBuffer":{"type":"Buffer","data":[222,201,222,132,253,0,197,193,69,16,241,134,241,44,10,112,228,0,184,169]},"announce":[],"urlList":[]}}